<?xml version="1.0" encoding="utf-8"?>
<!-- Generator: Adobe Illustrator 28.0.0, SVG Export Plug-In . SVG Version: 6.00 Build 0)  -->
<svg version="1.1" id="Layer_1" xmlns="http://www.w3.org/2000/svg" xmlns:xlink="http://www.w3.org/1999/xlink" x="0px" y="0px"
	 viewBox="0 0 216.2 231.6" style="enable-background:new 0 0 216.2 231.6;" xml:space="preserve">
<style type="text/css">
	.st0{fill:#FFFFFF;}
	.st1{fill:#080717;}
	.st2{fill:#E8D47E;}
	.st3{fill:#F3EFEC;}
	.st4{fill:#E0BDDC;}
</style>
<g id="Layer_2_00000183962452897684390480000010267531775435944877_">
</g>
<g>
	<path class="st0" d="M86.3,129.9L60.6,88.2l13.6-32.3c0.3-0.8,1.2-1.4,2-1.4l0,0c1.5,0,2.5,1.4,2.1,2.8l-3.6,12.2l3.1,17.3
		l72.7,53.7l-42.6,26.2L86.3,129.9z"/>
	<path class="st1" d="M108.1,167.7c-0.1,0-0.2,0-0.2,0c-0.3-0.1-0.5-0.2-0.6-0.5l-21.7-36.8L59.8,88.7c-0.2-0.3-0.2-0.6-0.1-0.9
		l13.6-32.3c0.5-1.2,1.7-2,3-2c1,0,2,0.5,2.6,1.3c0.6,0.8,0.8,1.8,0.5,2.8l-3.5,12l3,16.7l72.4,53.4c0.3,0.2,0.4,0.5,0.4,0.9
		c0,0.3-0.2,0.6-0.5,0.8l-42.6,26.2C108.4,167.6,108.2,167.7,108.1,167.7z M61.8,88.1l25.4,41.2c0,0,0,0,0,0l21.2,35.9l40.4-24.9
		L77.3,87.7c-0.2-0.2-0.3-0.4-0.4-0.6l-3.1-17.3c0-0.2,0-0.3,0-0.5l3.6-12.2c0.1-0.4,0-0.8-0.2-1.1s-0.6-0.5-1-0.5
		c-0.5,0-0.9,0.3-1.1,0.7L61.8,88.1z"/>
</g>
<g>
	<path class="st0" d="M18.7,83.5l-6-14.9c-0.9-2.3-3.3-3.7-5.7-3.4l-4,0.4l12.4,28.6L18.7,83.5z"/>
	<path class="st1" d="M15.4,95.2c-0.4,0-0.8-0.2-0.9-0.6L2.1,66c-0.1-0.3-0.1-0.6,0-0.9c0.2-0.3,0.4-0.5,0.8-0.5l4-0.4
		c2.9-0.3,5.7,1.4,6.8,4.1l6,14.9c0.1,0.2,0.1,0.4,0,0.7l-3.3,10.6C16.2,94.9,15.9,95.2,15.4,95.2C15.4,95.2,15.4,95.2,15.4,95.2z
		 M4.4,66.4l10.8,24.9l2.4-7.7L11.8,69c-0.8-1.9-2.7-3-4.7-2.8L4.4,66.4z"/>
</g>
<ellipse class="st2" cx="142" cy="59.1" rx="18" ry="14.9"/>
<g>
	<polygon class="st0" points="172.1,157 136.6,142.9 135.8,107.2 169,106.5 	"/>
	<path class="st1" d="M172.1,158c-0.1,0-0.2,0-0.4-0.1l-35.5-14.1c-0.4-0.1-0.6-0.5-0.6-0.9l-0.8-35.7c0-0.6,0.4-1,1-1l33.1-0.8
		c0.6,0,1,0.4,1,0.9l3.2,50.6c0,0.3-0.1,0.7-0.4,0.9C172.6,158,172.3,158,172.1,158z M137.6,142.2l33.4,13.3l-3-48l-31.2,0.7
		L137.6,142.2z"/>
</g>
<g>
	<path class="st0" d="M160.8,119.5c7.6-2.4,14.4-7.8,18.6-15.4c8.5-15.5,3-34.5-11.8-43c-24.4-14.1-40.2,6-41.9,10.9
		c-0.4,1.2-0.8,2.3-1.2,3.3c-0.9,1.7-1.6,3.5-2.1,5.3c-1.7,3.7-3.6,6.4-6.1,7.2c-3.9,1.3-1.8,32,21.1,29.7L160.8,119.5z"/>
	<path class="st1" d="M160.8,120.5c-0.4,0-0.8-0.3-0.9-0.7c-0.2-0.5,0.1-1.1,0.6-1.3c7.7-2.4,14.1-7.8,18.1-15
		c8.2-14.9,3.1-33.2-11.5-41.7c-8.7-5-17.2-6.1-25.1-3.2c-9.2,3.4-14.6,11.2-15.4,13.6c-0.4,1.2-0.8,2.3-1.2,3.4c0,0,0,0.1-0.1,0.1
		c-0.8,1.7-1.5,3.4-2.1,5.1c0,0,0,0.1-0.1,0.1c-2,4.5-4.1,6.9-6.7,7.8c-0.9,0.5-1.7,6.2,0.4,13c1.5,4.9,6.5,16.2,20.2,14.8
		c0.6,0,1,0.3,1.1,0.9s-0.4,1-0.9,1.1c-4.4,0.4-18.9,0.3-23.1-18.9c-1.2-5.6-1-11.9,1.6-12.8c2-0.7,3.7-2.7,5.5-6.7
		c0.6-1.8,1.3-3.6,2.1-5.3c0.4-1.1,0.8-2.2,1.2-3.3c1.2-3.5,7.4-11.3,16.6-14.8c8.5-3.1,17.5-2,26.8,3.3c15.6,9,20.9,28.5,12.2,44.4
		c-4.2,7.7-11,13.3-19.2,15.9C161,120.5,160.9,120.5,160.8,120.5z"/>
</g>
<path class="st2" d="M173.1,55.7c-10.1-5.5-21.8-5.2-31.4-0.2c3,0.7,5.9,1.8,8.8,3.3c19.1,10.4,25,36.3,13.3,57.8
	c-0.6,1.2-1.4,2.3-2.1,3.5c9.9-1.8,19-8.1,24.3-17.8C195.2,85.5,189.5,64.6,173.1,55.7z"/>
<path class="st2" d="M139.6,53.4c0,0,2.7,9.1,10.3,13.5c4,2.3-3.7,1.6-3.1,6.4c4.4,35.8,7.3,42.5,7.3,42.5c0.7,3.1,3.3,5.3,6.4,5.6
	l9.4,0.8l3-8.7l4.8-37.3C177.6,76.2,158.2,48.3,139.6,53.4z"/>
<path class="st0" d="M161.8,88.3c-2-2.1-4.9-2.8-7.5-2c2.3,4.5,2.9,9.7,1.8,14.5c1.9,0.1,3.9-0.6,5.4-2
	C164.5,96,164.6,91.3,161.8,88.3z"/>
<g>
	<path class="st1" d="M121.1,103.3c-0.5,0-0.9-0.4-1-0.9c-0.1-0.6,0.3-1,0.9-1.1c2.3-0.2,3.5-2.4,3.5-2.4c0.3-0.5,0.9-0.7,1.4-0.4
		c0.5,0.3,0.7,0.9,0.4,1.4c-0.1,0.1-1.7,3.1-5,3.5C121.1,103.3,121.1,103.3,121.1,103.3z"/>
</g>
<g>
	<path class="st1" d="M134.8,79c0,0-0.1,0-0.1,0c-0.6-0.1-0.9-0.6-0.9-1.1c0.1-0.8-0.5-2.2-1.8-3.3c-0.7-0.6-2.2-1.6-4.2-1.1
		c-0.5,0.2-1.1-0.2-1.2-0.7s0.2-1.1,0.7-1.2c2.1-0.6,4.3-0.1,6.1,1.5c1.6,1.4,2.6,3.5,2.4,5.1C135.7,78.6,135.3,79,134.8,79z"/>
</g>
<path class="st1" d="M128,83.1c-0.6,0.8-1.5,1.1-2,0.7c-0.6-0.4-0.6-1.4,0-2.1c0.6-0.8,1.5-1.1,2-0.7
	C128.5,81.3,128.5,82.3,128,83.1z"/>
<path class="st2" d="M147.9,70c0,0-12.9,9.4-11.3,16.1c1.6,6.7,13.4,8.1,12.1,19.6s-3.3,17.2-17.3,17.9c-18.7,1-25.5,18.1-25.5,28.5
	s47.8-15.3,47.8-15.3S170.2,120,147.9,70z"/>
<g>
	<path class="st0" d="M212.9,230.2l-37.5-94l-40.4,1.2c-9.6,0.3-18.9,2.9-27.2,7.6L42,182l-0.5-20.8l-30.1,0.1l-8.6,22.6
		c-6.8,17.7,8.1,36.1,26.9,33.2l77.7-12.1l6.6,25.6L212.9,230.2z"/>
	<path class="st1" d="M113.8,231.6c-0.4,0-0.8-0.3-1-0.8l-6.3-24.8l-76.8,12c-9.2,1.4-18.1-2-23.9-9.2c-5.8-7.2-7.3-16.7-4-25.3
		l8.6-22.6c0.1-0.4,0.5-0.6,0.9-0.6l30.1-0.1l0,0c0.5,0,1,0.4,1,1l0.5,19.2l64.4-36.2c8.4-4.8,18-7.4,27.7-7.7l40.4-1.2
		c0.4,0,0.8,0.2,1,0.6l37.5,94c0.2,0.5-0.1,1.1-0.6,1.3s-1.1-0.1-1.3-0.6l-37.2-93.4l-39.7,1.2c-9.4,0.3-18.6,2.9-26.8,7.5l-65.8,37
		c-0.3,0.2-0.7,0.2-1,0s-0.5-0.5-0.5-0.8l-0.5-19.9L12,162.3l-8.4,21.9c-3,8-1.7,16.7,3.7,23.4c5.4,6.6,13.6,9.8,22.1,8.5l77.7-12.1
		c0.5-0.1,1,0.2,1.1,0.7l6.6,25.6c0.1,0.5-0.2,1.1-0.7,1.2C114,231.6,113.9,231.6,113.8,231.6z"/>
</g>
<path class="st2" d="M157.3,50.7c8.9-4.6,40,4.8,36.5,36.5c-1.7,15.8-5.4,39.5-0.5,47.6c4.8,8.1,17.5,16.7,11.3,23.1
	c-6.2,6.4-40,10.2-44.6,5.4c-4.6-4.8-19.9-20.7-2.4-50C175,84,157,69.5,155.2,68.4C153.3,67.3,144.3,57.4,157.3,50.7z"/>
<g>
	<path class="st1" d="M49.8,96.6H31.7c-5.3,0-8.9-5.3-7-10.2l20-49.5c1.1-2.9,3.9-4.8,7-4.8h18.1c5.3,0,8.9,5.3,7,10.2l-20,49.5
		C55.7,94.7,52.9,96.6,49.8,96.6z"/>
	<path class="st1" d="M49.8,97.6H31.7c-2.8,0-5.4-1.4-7-3.7c-1.6-2.3-1.9-5.3-0.9-7.9l20-49.5c1.3-3.3,4.4-5.4,7.9-5.4h18.1
		c2.8,0,5.4,1.4,7,3.7c1.6,2.3,1.9,5.3,0.9,7.9l-20,49.5C56.4,95.5,53.3,97.6,49.8,97.6z M51.7,33.1c-2.7,0-5.1,1.6-6,4.1l-20,49.5
		c-0.8,2-0.5,4.2,0.7,6c1.2,1.8,3.2,2.8,5.4,2.8h18.1c2.7,0,5.1-1.6,6-4.1l20-49.5c0.8-2,0.5-4.2-0.7-6c-1.2-1.8-3.2-2.8-5.4-2.8
		L51.7,33.1L51.7,33.1z"/>
</g>
<g>
	<path class="st0" d="M52.5,96.6H34.3c-5.3,0-8.9-5.3-7-10.2l20-49.5c1.1-2.9,3.9-4.8,7-4.8h18.1c5.3,0,8.9,5.3,7,10.2l-20,49.5
		C58.3,94.7,55.5,96.6,52.5,96.6z"/>
	<path class="st1" d="M52.5,97.6H34.3c-2.8,0-5.4-1.4-7-3.7c-1.6-2.3-1.9-5.3-0.9-7.9l20-49.5c1.3-3.3,4.4-5.4,7.9-5.4h18.1
		c2.8,0,5.4,1.4,7,3.7c1.6,2.3,1.9,5.3,0.9,7.9l-20,49.5C59.1,95.5,56,97.6,52.5,97.6z M54.4,33.1c-2.7,0-5.1,1.6-6,4.1l-20,49.5
		c-0.8,2-0.5,4.2,0.7,6c1.2,1.8,3.2,2.8,5.4,2.8h18.1c2.7,0,5.1-1.6,6-4.1l20-49.5c0.8-2,0.5-4.2-0.7-6c-1.2-1.8-3.2-2.8-5.4-2.8
		L54.4,33.1L54.4,33.1z"/>
</g>
<g>
	<path class="st0" d="M40.7,69.7L40.4,70c-1.2,1.4-2.1,3.2-2.4,5.1l-1.4,8.9c-0.3,1.9-3,1.9-3.4,0.1l-2.8-13.4l4-10.9l-10.2,2.7
		l-7.8,19.5c-2.5,6.3-1.3,13.5,3.1,18.6l9.6,11.1l-17.7,49.2h30.1l4-82l-0.2-7.1C45.2,69.5,42.5,68.3,40.7,69.7z"/>
	<path class="st1" d="M41.6,161.9H11.4c-0.3,0-0.6-0.2-0.8-0.4c-0.2-0.3-0.2-0.6-0.1-0.9L28,111.9l-9.2-10.7c-4.7-5.4-6-13-3.3-19.7
		l7.8-19.5c0.1-0.3,0.4-0.5,0.7-0.6l10.2-2.7c0.4-0.1,0.7,0,1,0.3s0.3,0.7,0.2,1l-3.9,10.6l2.7,13.1c0.1,0.5,0.6,0.6,0.7,0.6
		c0.1,0,0.6-0.1,0.7-0.6l1.4-8.9c0.3-2.1,1.2-4,2.6-5.6c0-0.1,0.1-0.1,0.1-0.1l0.4-0.3l0,0c1.1-0.9,2.7-1.1,4-0.5
		c1.3,0.6,2.2,1.9,2.2,3.3l0.2,7.1l-4,82.1C42.5,161.5,42.1,161.9,41.6,161.9z M12.8,159.9h27.8l3.9-81.1l-0.2-7
		c0-0.7-0.4-1.3-1-1.6c-0.6-0.3-1.3-0.2-1.9,0.2L41,70.7C40,72,39.2,73.6,39,75.2l-1.4,8.9c-0.2,1.3-1.3,2.3-2.6,2.3
		c-1.4,0-2.5-0.9-2.7-2.2l-2.8-13.4c0-0.2,0-0.4,0-0.6l3.3-9.1l-7.9,2l-7.6,19c-2.4,6-1.3,12.7,2.9,17.6l9.6,11.1
		c0.2,0.3,0.3,0.7,0.2,1L12.8,159.9z"/>
</g>
<g>
	<path class="st0" d="M20.7,79.3L24,62.7L20.7,79.3z"/>
	<path class="st1" d="M20.7,80.3c-0.1,0-0.1,0-0.2,0c-0.5-0.1-0.9-0.6-0.8-1.2l3.3-16.6c0.1-0.5,0.6-0.9,1.2-0.8
		c0.5,0.1,0.9,0.6,0.8,1.2l-3.3,16.6C21.6,80,21.2,80.3,20.7,80.3z"/>
</g>
<circle class="st3" cx="87.3" cy="25.9" r="25.9"/>
<polygon class="st3" points="61.2,51.9 64.8,38.8 68.3,25.7 77.9,35.3 87.4,44.9 74.3,48.4 "/>
<g>
	<path class="st0" d="M104.5,189.7l2.7,15.2L104.5,189.7z"/>
	<path class="st1" d="M107.2,206c-0.5,0-0.9-0.3-1-0.8l-2.7-15.2c-0.1-0.5,0.3-1.1,0.8-1.2c0.6-0.1,1.1,0.3,1.2,0.8l2.7,15.2
		c0.1,0.5-0.3,1.1-0.8,1.2C107.4,206,107.3,206,107.2,206z"/>
</g>
<circle class="st2" cx="162.7" cy="153.5" r="26.3"/>
<ellipse class="st2" cx="190" cy="150.8" rx="26.3" ry="26.3"/>
<circle class="st2" cx="196.7" cy="124.8" r="14.9"/>
<g>
	<path class="st0" d="M24.7,191.7L42,182L24.7,191.7z"/>
	<path class="st1" d="M24.7,192.7c-0.4,0-0.7-0.2-0.9-0.5c-0.3-0.5-0.1-1.1,0.4-1.4l17.3-9.7c0.5-0.3,1.1-0.1,1.4,0.4
		c0.3,0.5,0.1,1.1-0.4,1.4l-17.3,9.7C25,192.7,24.9,192.7,24.7,192.7z"/>
</g>
<g>
	<path class="st0" d="M92.6,140.1l23.9-23.5L92.6,140.1z"/>
	<path class="st1" d="M92.6,141.1c-0.3,0-0.5-0.1-0.7-0.3c-0.4-0.4-0.4-1,0-1.4l23.9-23.5c0.4-0.4,1-0.4,1.4,0c0.4,0.4,0.4,1,0,1.4
		l-23.9,23.5C93.1,141,92.8,141.1,92.6,141.1z"/>
</g>
<path class="st4" d="M80.1,18.5h-4.8c-0.5,0-0.9-0.4-0.9-0.9v-4.8c0-0.5,0.4-0.9,0.9-0.9h4.8c0.5,0,0.9,0.4,0.9,0.9
	c0,0.5-0.4,0.9-0.9,0.9h-3.9v3h3v-0.9c0-0.5,0.4-0.9,0.9-0.9c0.5,0,0.9,0.4,0.9,0.9v1.8C81,18.1,80.6,18.5,80.1,18.5L80.1,18.5z"/>
<path class="st1" d="M80.1,28h-4.8c-0.5,0-0.9-0.4-0.9-0.9v-4.8c0-0.5,0.4-0.9,0.9-0.9h4.8c0.5,0,0.9,0.4,0.9,0.9s-0.4,0.9-0.9,0.9
	h-3.9v3h3v-0.9c0-0.5,0.4-0.9,0.9-0.9c0.5,0,0.9,0.4,0.9,0.9v1.8C81,27.7,80.6,28,80.1,28L80.1,28z"/>
<path class="st1" d="M80.1,37.6h-4.8c-0.5,0-0.9-0.4-0.9-0.9V32c0-0.5,0.4-0.9,0.9-0.9h4.8c0.5,0,0.9,0.4,0.9,0.9
	c0,0.5-0.4,0.9-0.9,0.9h-3.9v3h3v-0.9c0-0.5,0.4-0.9,0.9-0.9c0.5,0,0.9,0.4,0.9,0.9v1.8C81,37.2,80.6,37.6,80.1,37.6L80.1,37.6z"/>
<path class="st4" d="M94.9,14.9H84c-0.5,0-0.9-0.4-0.9-0.9c0-0.5,0.4-0.9,0.9-0.9h10.9c0.5,0,0.9,0.4,0.9,0.9
	C95.8,14.5,95.4,14.9,94.9,14.9z"/>
<path class="st4" d="M97.8,18.5H84c-0.5,0-0.9-0.4-0.9-0.9s0.4-0.9,0.9-0.9h13.8c0.5,0,0.9,0.4,0.9,0.9S98.3,18.5,97.8,18.5z"/>
<path class="st1" d="M94.9,24.4H84c-0.5,0-0.9-0.4-0.9-0.9s0.4-0.9,0.9-0.9h10.9c0.5,0,0.9,0.4,0.9,0.9S95.4,24.4,94.9,24.4z"/>
<path class="st1" d="M97.8,28H84c-0.5,0-0.9-0.4-0.9-0.9s0.4-0.9,0.9-0.9h13.8c0.5,0,0.9,0.4,0.9,0.9S98.3,28,97.8,28z"/>
<path class="st1" d="M94.9,34H84c-0.5,0-0.9-0.4-0.9-0.9c0-0.5,0.4-0.9,0.9-0.9h10.9c0.5,0,0.9,0.4,0.9,0.9
	C95.8,33.6,95.4,34,94.9,34z"/>
<path class="st1" d="M97.8,37.6H84c-0.5,0-0.9-0.4-0.9-0.9c0-0.5,0.4-0.9,0.9-0.9h13.8c0.5,0,0.9,0.4,0.9,0.9
	C98.7,37.2,98.3,37.6,97.8,37.6z"/>
</svg>
