<?xml version="1.0" encoding="utf-8"?>
<!-- Generator: Adobe Illustrator 28.0.0, SVG Export Plug-In . SVG Version: 6.00 Build 0)  -->
<svg version="1.1" id="_x3C_Layer_x3E_" xmlns="http://www.w3.org/2000/svg" xmlns:xlink="http://www.w3.org/1999/xlink" x="0px"
	 y="0px" viewBox="0 0 186.1 179.3" style="enable-background:new 0 0 186.1 179.3;" xml:space="preserve">
<style type="text/css">
	.st0{fill:#E8D47E;}
	.st1{fill:#E0BDDC;}
	.st2{fill:#FFFFFF;stroke:#000000;stroke-width:2;stroke-linecap:round;stroke-linejoin:round;stroke-miterlimit:10;}
	.st3{fill:#FFFFFF;}
	.st4{fill:none;stroke:#000000;stroke-width:2;stroke-linecap:round;stroke-linejoin:round;stroke-miterlimit:10;}
	.st5{fill:none;stroke:#000000;stroke-width:2;stroke-miterlimit:10;}
	.st6{fill:#080717;}
</style>
<path class="st0" d="M142.3,78.9c0,0,21.9-8.7,18.2-19.4s-16.2-11.1-13.4-21.7s9.6-20.5-10-19.7s-16.2-21.6-29-17.8
	C95.4,4.1,97,13.7,85.5,18.4C74,23,55.3,18.4,55.3,37s7.1,33.7,14.8,32.2s1.8,8.7,2,14.9c0.3,6.3,2,26.5,26.4,3.3
	C123.1,64.2,128.6,83.4,142.3,78.9z"/>
<path class="st1" d="M100.6,140.8L61,119.5l14.1-30.9c5.7-12.6,19.4-18.4,30.6-13c11.2,5.3,15.6,19.9,9.9,32.4L100.6,140.8z"/>
<path class="st1" d="M137.1,67.3l-0.5,108.4H98.2l1-53.2c0,0-16.2-15.6-5.9-32.4s10.3-16.8,10.3-16.8L137.1,67.3z"/>
<path class="st2" d="M86.6,163.6l19.1-73.5c0,0,3.3-14.4-0.9-21.9s-12.6-14-9.8-21.4c2.8-7.4-0.9-12.1-4.2-9.8
	C87.5,39.3,81,51,81,51l8.4,22.8L51.7,165h27L86.6,163.6z"/>
<path class="st2" d="M172.9,117.2l8.1,47.6c0.5,7.3-5.2,13.5-12.5,13.5l0,0L149,124.8L172.9,117.2z"/>
<path class="st1" d="M182.5,119.9l-43.7,10.7l-10.2-32.5c-4.1-13.2,2.2-26.7,14.1-30.2s24.9,4.3,29,17.5L182.5,119.9z"/>
<g>
	<path class="st3" d="M121.3,40.2c0,0-0.7-6.2,4.1-5.9c1.6,0.1,3.6,0.9,4.2,2.2c0.6,1.5,1.2,3.4,0.2,5c-0.8,1.3-2.1,1.8-2.5,2
		c0,0-0.7-0.2-0.8,0.4s3,20.4,3.2,21.1s1.5,4.2,1.3,4.8s-4.1,5.8-11.4,5.4s-9.8-2.4-9.7-3.6c0.2-1.2-0.2-5.9-0.3-6.7
		c-0.1-0.8-0.4-0.8-0.8-0.7c-2.4,0.3-6.8-0.9-10.6-4.4c-3.7-3.4-4.1-5.2-4.4-6.7c-2-7.9-2.5-24-1.4-24.1c15-1.5,12-8.9,15.1-8.4
		C110.5,21.2,115.4,42.1,121.3,40.2z"/>
	<path class="st4" d="M116.7,62.5c-2.8,1.6-5.1,1.6-7.9,1.7c-2.4,0.2-6.8-0.9-10.6-4.4c-3.7-3.4-4.1-5.2-4.4-6.7
		c-2-7.9-1.4-22.2-1.4-24.1"/>
	<path class="st4" d="M101.5,36.2l0.7,7.5c0,0-1.6,0.4-1.5,1.4s0.2,1.8,2.9,1.4"/>
	<path class="st5" d="M106.3,33.7c0,0,2.3-1.7,5.1,0.1"/>
	<path class="st5" d="M93,35.2c0,0,1.4-2.4,4.2-0.9"/>
	<path d="M97.3,39.6c0.1,0.5-0.3,1-0.9,1c-0.5,0-1-0.3-1.1-0.9s0.3-1,0.9-1C96.8,38.6,97.2,39,97.3,39.6z"/>
	<path d="M110.6,38.3c0.1,0.5-0.3,1-0.9,1c-0.5,0-1-0.3-1.1-0.9s0.3-1,0.9-1C110.1,37.4,110.5,37.8,110.6,38.3z"/>
	<path class="st4" d="M110.3,47c0,0,0.3,3.5-3.3,4.2"/>
	<path class="st4" d="M124.3,37.2c0.2-0.2,0.6-0.4,0.9-0.4c0.9-0.1,1.7,0.7,1.8,1.7c0.1,0.6-0.2,1.2-0.5,1.5"/>
	<path d="M109.3,70.4c0-1.4-0.4-4.5-0.5-5.7c1.5-0.4,3.1-1,4.6-1.9c3-1.7,5.3-4,6.7-6.4c-0.4,2.9-1.9,6.1-4.2,8.9
		C113.9,67.7,111.6,69.4,109.3,70.4z"/>
</g>
<g>
	<path class="st2" d="M185.1,30.2l-26.5,27.1l4.8-16.8C163.4,40.5,181.9,22.8,185.1,30.2z"/>
	<path class="st2" d="M161.1,54.1l11.6-21.5l1.8-18c0.1-1.6-6.8-0.5-6.8,4.7l-2,10.8l-12.5,15L161.1,54.1z"/>
	<path class="st2" d="M167.2,155.4l-26.8-73l0.2-5.4c0.1-2.4,1.1-4.7,3-6.3L160,56.2l5.6-25.1l-2.8-18l-3,1.7c-2.1,2.1-2.6,6-2.2,9
		l0.5,8l-5.9,18l1.1-11.9L150,24.2l-2.8,2.9c-1.2,1.7-1.8,3.8-1.7,5.9l0.9,7.4c0,0-3.3,15.7-10,17.3c-7.4,1.7-18.9,6.8-22.6,13
		s-1.2,14.5-1.2,14.5l15.5,93h41.6"/>
	<line class="st4" x1="150.9" y1="56.5" x2="152.4" y2="47.5"/>
</g>
<g>
	<path class="st6" d="M123.9,179.3h-96c-2.5,0-4.6-1.5-5.5-3.8l-18.2-50c-1.4-3.8,1.4-7.8,5.5-7.8h96c2.4,0,4.6,1.5,5.5,3.8
		l18.2,49.9C130.8,175.2,128,179.3,123.9,179.3z"/>
	<path class="st6" d="M153.1,179.3l-0.9-2.6c-0.8-2.3-3-3.8-5.5-3.8H50.6c-3.6,0-6.2,3.1-5.8,6.5L153.1,179.3L153.1,179.3z"/>
	<path class="st6" d="M120,179.3H24c-2.5,0-4.6-1.5-5.5-3.8l-18.1-50c-1.4-3.8,1.4-7.8,5.5-7.8h96c2.4,0,4.6,1.5,5.5,3.8l18.2,49.9
		C126.9,175.2,124.1,179.3,120,179.3z"/>
	<path class="st2" d="M67.5,147.6c1.2,3.2-0.5,5.9-3.8,5.9c-3.2,0-6.8-2.6-8-5.9c-1.2-3.2,0.5-5.9,3.8-5.9S66.3,144.3,67.5,147.6z"
		/>
</g>
</svg>
