<?xml version="1.0" encoding="utf-8"?>
<!-- Generator: Adobe Illustrator 28.0.0, SVG Export Plug-In . SVG Version: 6.00 Build 0)  -->
<svg version="1.1" id="Layer_1" xmlns="http://www.w3.org/2000/svg" xmlns:xlink="http://www.w3.org/1999/xlink" x="0px" y="0px"
	 viewBox="0 0 512 512" style="enable-background:new 0 0 512 512;" xml:space="preserve">
<style type="text/css">
	.st0{display:none;}
	.st1{display:inline;}
	.st2{fill:none;stroke:#000000;stroke-width:16;stroke-linecap:round;stroke-linejoin:round;stroke-miterlimit:10;}
</style>
<g id="Layer" class="st0">
	<g class="st1">
		<polyline class="st2" points="89,386 424,386 424,386 		"/>
		<polyline class="st2" points="89,257 424,257 424,257 		"/>
		<polyline class="st2" points="89,127 424,127 424,127 		"/>
	</g>
</g>
<g>
	<path d="M424,394H89c-4.4,0-8-3.6-8-8s3.6-8,8-8h335c4.4,0,8,3.6,8,8S428.4,394,424,394z"/>
</g>
<g>
	<path d="M424,265H89c-4.4,0-8-3.6-8-8s3.6-8,8-8h335c4.4,0,8,3.6,8,8S428.4,265,424,265z"/>
</g>
<path d="M424,135H89c-4.4,0-8-3.6-8-8s3.6-8,8-8h335c4.4,0,8,3.6,8,8S428.4,135,424,135z"/>
</svg>
