<?xml version="1.0" encoding="utf-8"?>
<!-- Generator: Adobe Illustrator 28.0.0, SVG Export Plug-In . SVG Version: 6.00 Build 0)  -->
<svg version="1.1" id="Layer_1" xmlns="http://www.w3.org/2000/svg" xmlns:xlink="http://www.w3.org/1999/xlink" x="0px" y="0px"
	 viewBox="0 0 32 32" style="enable-background:new 0 0 32 32;" xml:space="preserve">
<style type="text/css">
	.st0{fill:#F3EFEC;}
	.st1{fill:none;}
</style>
<g id="Layer_2_00000121269512246138254880000016126502140782390156_">
	<path class="st0" d="M4,29c-0.3,0-0.5-0.1-0.7-0.3c-0.4-0.4-0.4-1,0-1.4c0,0,0,0,0,0l24-24c0.4-0.4,1-0.4,1.4,0s0.4,1,0,1.4l-24,24
		C4.5,28.9,4.3,29,4,29z"/>
	<path class="st0" d="M28,29c-0.3,0-0.5-0.1-0.7-0.3l-24-24c-0.4-0.4-0.4-1,0-1.4s1-0.4,1.4,0l24,24c0.4,0.4,0.4,1,0,1.4
		c0,0,0,0,0,0C28.5,28.9,28.3,29,28,29z"/>
</g>
<g id="frame">
	<rect class="st1" width="32" height="32"/>
</g>
</svg>
